<svg viewBox="0 0 100 100" fill="none" xmlns="http://www.w3.org/2000/svg">
  <path d="M73.5 42.8V28.7c2.9-1.4 4.9-4.4 4.9-7.9 0-4.8-3.9-8.7-8.7-8.7s-8.7 3.9-8.7 8.7c0 3.5 2 6.5 4.9 7.9v14.1c-4.8 1-9.2 3.4-12.7 6.8L24.8 28.2c.3-1 .5-2 .5-3.1 0-6.2-5-11.2-11.2-11.2S2.9 18.9 2.9 25.1s5 11.2 11.2 11.2c1.8 0 3.5-.4 5-1.2l28 21.2c-2.6 4.3-4.1 9.4-4.1 14.8 0 15.8 12.8 28.6 28.6 28.6s28.6-12.8 28.6-28.6c0-13.3-9.1-24.5-21.4-27.6l-5.3-.7zm-2 43.3c-9.1 0-16.5-7.4-16.5-16.5s7.4-16.5 16.5-16.5 16.5 7.4 16.5 16.5-7.4 16.5-16.5 16.5z" fill="#FF7A59"/>
</svg>
