<svg viewBox="0 0 100 100" fill="none" xmlns="http://www.w3.org/2000/svg">
  <path d="M10.5 70.5c-1.5 2.5-.5 5.5 2 7l25 15c2.5 1.5 5.5.5 7-2 5-8 15-25 30-25 12 0 20 12 25 20 1.5 2.5 5 3.5 7.5 2l25-15c2.5-1.5 3.5-5 2-7.5-7-12-25-40-59.5-40S17.5 58.5 10.5 70.5z" fill="url(#confluence-grad-dark-1)"/>
  <path d="M89.5 29.5c1.5-2.5.5-5.5-2-7l-25-15c-2.5-1.5-5.5-.5-7 2-5 8-15 25-30 25-12 0-20-12-25-20-1.5-2.5-5-3.5-7.5-2l-25 15c-2.5 1.5-3.5 5-2 7.5 7 12 25 40 59.5 40s52.5-33 59.5-45.5z" fill="url(#confluence-grad-dark-2)"/>
  <defs>
    <linearGradient id="confluence-grad-dark-1" x1="10" y1="65" x2="90" y2="65" gradientUnits="userSpaceOnUse">
      <stop stop-color="#4C9AFF"/>
      <stop offset="1" stop-color="#79B8FF"/>
    </linearGradient>
    <linearGradient id="confluence-grad-dark-2" x1="90" y1="35" x2="10" y2="35" gradientUnits="userSpaceOnUse">
      <stop stop-color="#4C9AFF"/>
      <stop offset="1" stop-color="#79B8FF"/>
    </linearGradient>
  </defs>
</svg>
