<svg width="280" height="64" viewBox="0 0 280 64" fill="none" xmlns="http://www.w3.org/2000/svg" role="img" aria-label="IntegrateWise logo">
  <title>IntegrateWise</title>
  <g transform="translate(4, 2) scale(0.6)">
    <path d="M10 10 L30 10 L30 55 L50 40 L70 55 L70 10 L90 10 L90 80 L65 90 L50 70 L35 90 L10 90 Z M20 22 A5 5 0 1 0 20 32 A5 5 0 1 0 20 22 Z" fill="#F3F4F6" fill-rule="evenodd"/>
    <path d="M50 18 L58 26 L54 26 L54 36 L46 36 L46 26 L42 26 Z" fill="#14B8A6"/>
  </g>
  <text x="72" y="42" font-family="system-ui, -apple-system, sans-serif" font-size="28" font-weight="600" fill="#F3F4F6">IntegrateWise</text>
</svg>