<svg viewBox="0 0 100 100" fill="none" xmlns="http://www.w3.org/2000/svg">
  <path d="M6.1 11.3c1.3-1 1.9-1 3.6-.8l65.7 4.8c1.6.2 2.1.5 2.1 2.1v67.8c0 1.6-.5 2.6-2.6 2.8L17.6 92c-3.2.2-4.7-.3-6.3-2.1L2.2 78.3c-1.6-2.1-2.1-3.7-2.1-5.8V16.8c0-2.6 1-4.7 6-5.5z" fill="#fff"/>
  <path d="M73.7 22.3L22.3 18v58.5l41.7-2.8c3.8-.3 4.7-.8 4.7-3.6v-47c0-1.6-.5-2.1-2.1-2.1l7.1.3z" fill="#1a1a1a"/>
  <path d="M55.1 35.7c.5-.3 1-.4 1.9-.4h4.7c1.6 0 2.1.8 2.1 2.1v31.2c0 1.6-.5 2.1-2.1 2.1h-5c-1.6 0-2.6-1-2.6-2.6V35.7h1z" fill="#fff"/>
  <path d="M35 36h12v2H35v-2zm0 8h20v2H35v-2zm0 8h18v2H35v-2zm0 8h15v2H35v-2z" fill="#fff" opacity="0.6"/>
</svg>
