<svg viewBox="0 0 100 42" xmlns="http://www.w3.org/2000/svg" fill="#000000">
  <path d="M13.3 12.4c0-1.7 1.4-2.4 3.7-2.4 3.3 0 7.5 1 10.8 2.8V4.1c-3.6-1.4-7.2-2-10.8-2C9.3 2.1 4 6.1 4 13c0 10.7 14.7 9 14.7 13.6 0 2-1.7 2.6-4.1 2.6-3.6 0-8.2-1.5-11.8-3.5v8.8c4 1.7 8.1 2.5 11.8 2.5 8 0 13.5-3.9 13.5-12.9 0-11.6-14.8-9.5-14.8-13.7zm28.8-3.3c-3 0-4.9 1.4-6 2.4l-.4-1.9h-8.5v32l9.6-2V28c1.1.8 2.7 2 5.4 2 5.4 0 10.4-4.4 10.4-14 0-8.8-5.1-7.9-10.5-6.9zm-1.8 20.8c-1.8 0-2.9-.6-3.6-1.5V17.5c.8-.9 1.9-1.5 3.6-1.5 2.7 0 4.6 3.1 4.6 6.4 0 3.7-1.9 7.5-4.6 7.5zm27.6-23.8h9.6v29.7h-9.6V6.1zm0-6.1l9.6-2v7.9h-9.6V0zM98 35.8h-9.6V20.3c0-4-1.5-5.6-4.1-5.6-3.3 0-4.6 2.3-4.6 5.6v15.5h-9.6V6.1h9.6v2.8c1.3-1.8 4-3.5 8-3.5 5.4 0 10.3 3.1 10.3 10.9v19.5z" />
</svg>