<svg width="100%" height="100%" viewBox="0 0 1200 800" xmlns="http://www.w3.org/2000/svg" role="img" aria-labelledby="title desc">
  <title id="title">IntegrateWise OS Core</title>
  <desc id="desc">Circular core with modular services around a central operating system concept</desc>
  <defs>
    <radialGradient id="coreGlow" cx="50%" cy="50%" r="60%">
      <stop offset="0%" stop-color="#3F51B5" stop-opacity="0.45"/>
      <stop offset="100%" stop-color="transparent"/>
    </radialGradient>
  </defs>
  <rect width="1200" height="800" fill="#1E2A4A"/>
  <circle cx="600" cy="400" r="300" fill="url(#coreGlow)"/>
  <circle cx="600" cy="400" r="180" fill="#223255" stroke="#3F51B5" stroke-width="2"/>
  <text x="600" y="395" text-anchor="middle" fill="#F3F4F6" font-family="Inter" font-size="42" font-weight="600">IntegrateWise OS Core</text>
  <text x="600" y="435" text-anchor="middle" fill="#C7CBD6" font-family="Inter" font-size="20">Unified runtime, Deterministic routing, Guardrails</text>
  <g fill="#F3F4F6" stroke="#3F51B5">
    <rect x="270" y="360" width="110" height="70" rx="10" fill="#223255"/>
    <text x="325" y="402" text-anchor="middle" fill="#F3F4F6" font-family="Inter" font-size="18">Spine</text>
    <rect x="820" y="360" width="110" height="70" rx="10" fill="#223255"/>
    <text x="875" y="402" text-anchor="middle" fill="#F3F4F6" font-family="Inter" font-size="18">Webhooks</text>
    <rect x="550" y="160" width="110" height="70" rx="10" fill="#223255"/>
    <text x="605" y="202" text-anchor="middle" fill="#F3F4F6" font-family="Inter" font-size="18">AI Agents</text>
    <rect x="550" y="570" width="110" height="70" rx="10" fill="#223255"/>
    <text x="605" y="612" text-anchor="middle" fill="#F3F4F6" font-family="Inter" font-size="18">DataSentinel</text>
  </g>
  <g stroke="#3F51B5" stroke-dasharray="6 6">
    <path d="M380 395 L520 395"/>
    <path d="M680 395 L820 395"/>
    <path d="M605 230 L605 320"/>
    <path d="M605 480 L605 570"/>
  </g>
</svg>
