<svg viewBox="0 0 100 100" fill="none" xmlns="http://www.w3.org/2000/svg">
  <path d="M21.1 63.1c0 5.8-4.7 10.5-10.5 10.5S0 68.9 0 63.1c0-5.8 4.7-10.5 10.5-10.5h10.5v10.5z" fill="#E01E5A"/>
  <path d="M26.4 63.1c0-5.8 4.7-10.5 10.5-10.5s10.5 4.7 10.5 10.5v26.3c0 5.8-4.7 10.5-10.5 10.5s-10.5-4.7-10.5-10.5V63.1z" fill="#E01E5A"/>
  <path d="M36.9 21.1c-5.8 0-10.5-4.7-10.5-10.5S31.1 0 36.9 0s10.5 4.7 10.5 10.5v10.5H36.9z" fill="#36C5F0"/>
  <path d="M36.9 26.4c5.8 0 10.5 4.7 10.5 10.5s-4.7 10.5-10.5 10.5H10.5C4.7 47.4 0 42.7 0 36.9s4.7-10.5 10.5-10.5h26.4z" fill="#36C5F0"/>
  <path d="M78.9 36.9c0-5.8 4.7-10.5 10.5-10.5s10.5 4.7 10.5 10.5-4.7 10.5-10.5 10.5H78.9V36.9z" fill="#2EB67D"/>
  <path d="M73.6 36.9c0 5.8-4.7 10.5-10.5 10.5S52.6 42.7 52.6 36.9V10.5C52.6 4.7 57.3 0 63.1 0s10.5 4.7 10.5 10.5v26.4z" fill="#2EB67D"/>
  <path d="M63.1 78.9c5.8 0 10.5 4.7 10.5 10.5S68.9 100 63.1 100s-10.5-4.7-10.5-10.5V78.9h10.5z" fill="#ECB22E"/>
  <path d="M63.1 73.6c-5.8 0-10.5-4.7-10.5-10.5s4.7-10.5 10.5-10.5h26.3c5.8 0 10.5 4.7 10.5 10.5s-4.7 10.5-10.5 10.5H63.1z" fill="#ECB22E"/>
</svg>
