<svg viewBox="0 0 100 100" xmlns="http://www.w3.org/2000/svg" fill="#000000">
  <path d="M21.1 63.1c0 5.8-4.7 10.5-10.5 10.5S0 68.9 0 63.1c0-5.8 4.7-10.5 10.5-10.5h10.5v10.5zm5.3 0c0-5.8 4.7-10.5 10.5-10.5s10.5 4.7 10.5 10.5v26.3c0 5.8-4.7 10.5-10.5 10.5s-10.5-4.7-10.5-10.5V63.1zm10.5-42c-5.8 0-10.5-4.7-10.5-10.5S31.1 0 36.9 0s10.5 4.7 10.5 10.5v10.5H36.9zm0 5.3c5.8 0 10.5 4.7 10.5 10.5s-4.7 10.5-10.5 10.5H10.5C4.7 47.4 0 42.7 0 36.9s4.7-10.5 10.5-10.5h26.4zm42 10.5c0-5.8 4.7-10.5 10.5-10.5s10.5 4.7 10.5 10.5-4.7 10.5-10.5 10.5H78.9V36.9zm-5.3 0c0 5.8-4.7 10.5-10.5 10.5S52.6 42.7 52.6 36.9V10.5C52.6 4.7 57.3 0 63.1 0s10.5 4.7 10.5 10.5v26.4zm-10.5 42c5.8 0 10.5 4.7 10.5 10.5S68.9 100 63.1 100s-10.5-4.7-10.5-10.5V78.9h10.5zm0-5.3c-5.8 0-10.5-4.7-10.5-10.5s4.7-10.5 10.5-10.5h26.3c5.8 0 10.5 4.7 10.5 10.5s-4.7 10.5-10.5 10.5H63.1z" />
</svg>