<svg viewBox="0 0 120 84" fill="none" xmlns="http://www.w3.org/2000/svg">
  <path d="M50.1 8.4c4.2-4.4 10.1-7.1 16.6-7.1 8.8 0 16.5 5 20.4 12.3 3.4-1.5 7.2-2.4 11.2-2.4 15.1 0 27.3 12.2 27.3 27.3s-12.2 27.3-27.3 27.3c-2.1 0-4.1-.2-6.1-.7-3.4 6.4-10.2 10.8-18 10.8-3.2 0-6.3-.8-9-2.2-3.5 6.2-10.2 10.4-17.9 10.4-7.4 0-13.9-3.9-17.5-9.8-1.8.4-3.6.6-5.5.6C10.7 74.9 0 64.2 0 51.6c0-9.6 5.9-17.8 14.3-21.2-.5-2-.8-4.2-.8-6.4C13.5 10.7 24.2 0 37.5 0c7.3 0 13.8 3.2 18.3 8.4h-5.7z" fill="#00A1E0"/>
</svg>
