<svg width="100%" height="100%" viewBox="0 0 1200 800" xmlns="http://www.w3.org/2000/svg" role="img" aria-labelledby="title desc">
  <title id="title">Automate: AI Agents and Plans</title>
  <desc id="desc">Robotic figure connected to tools, indicating automated workflows</desc>
  <rect width="1200" height="800" fill="#1E2A4A"/>
  <g transform="translate(560,280)">
    <rect width="80" height="80" rx="12" fill="#223255" stroke="#3F51B5" stroke-width="2"/>
    <circle cx="20" cy="40" r="10" fill="#36C5F0"/>
    <circle cx="60" cy="40" r="10" fill="#F54476"/>
  </g>
  <rect x="580" y="380" width="40" height="80" rx="10" fill="#223255" stroke="#3F51B5"/>
  <g stroke="#3F51B5" stroke-width="3">
    <path d="M600 420 H860"/>
    <path d="M600 420 H340"/>
    <path d="M600 460 H900"/>
    <path d="M600 460 H300"/>
  </g>
  <g>
    <rect x="860" y="400" width="120" height="50" rx="10" fill="#223255" stroke="#3F51B5"/>
    <text x="920" y="432" text-anchor="middle" fill="#F3F4F6" font-family="Inter" font-size="18">Workflows</text>
    <rect x="300" y="400" width="120" height="50" rx="10" fill="#223255" stroke="#3F51B5"/>
    <text x="360" y="432" text-anchor="middle" fill="#F3F4F6" font-family="Inter" font-size="18">Triggers</text>
    <rect x="900" y="440" width="120" height="50" rx="10" fill="#223255" stroke="#3F51B5"/>
    <text x="960" y="472" text-anchor="middle" fill="#F3F4F6" font-family="Inter" font-size="18">Guardrails</text>
    <rect x="300" y="440" width="120" height="50" rx="10" fill="#223255" stroke="#3F51B5"/>
    <text x="360" y="472" text-anchor="middle" fill="#F3F4F6" font-family="Inter" font-size="18">Tools</text>
  </g>
  <text x="60" y="80" fill="#F3F4F6" font-family="Inter" font-weight="600" font-size="36">Automate: AI Agents and Plans</text>
  <text x="60" y="120" fill="#C7CBD6" font-family="Inter" font-size="20">Deterministic routing, Plan execution, Safe actions</text>
</svg>
